<svg xmlns="http://www.w3.org/2000/svg" width="58" height="58" viewBox="0 0 58 58">
    <g fill="#FFF" fill-rule="nonzero">
        <path d="M29.113 0C13.089 0 0 12.864 0 28.887 0 44.911 13.09 58 29.113 58 44.91 58 58 44.91 58 28.887S44.91 0 29.113 0zM3.837 30.241c.677 2.031 6.093 16.024 14.669 21.891-8.35-4.062-14.218-12.186-14.67-21.89zM33.4 53.938c-7.448-3.16-23.922-11.961-29.113-29.564 3.16 6.093 12.864 21.665 31.37 28.887-.677.225-1.58.451-2.257.677zm10.155-4.063C16.023 42.428 6.545 23.696 5.191 20.311c3.385-9.704 12.863-16.7 23.922-16.7 13.992 0 25.276 11.51 25.276 25.276 0 8.802-4.288 16.25-10.833 20.988z"/>
        <path d="M28.75 19.524c.45-.238.9 0 1.125 0A1.67 1.67 0 0 0 31 20l-2.7-8.095C26.275 11.19 23.575 10.476 22 10c1.125 1.429 3.375 4.524 6.525 9.048l.225.476zM27 20.8c-1.862-.8-6-2.6-6-2.8.207 0 1.241 4.8 1.241 4.8L27 23v-2.2zM36.45 13.081h.225c.225.216.45.216.675.216v.217c.225.216.45.216.675.432.45.216.675.216.9.432l.225.217c.225 0 .225.216.45.432l.225.216c.225.216.45.433.9.649l.675.649h.225c.225.216.225.432.45.648l.225.216c.225 0 .45.433.675.433.225.432.225.432.45.648v.217l.45.432v.216c.225.217.45.433.45.649l.45-.649.225-.216v-.649c-.225-.648-1.125-2.162-3.15-3.891-2.025-1.73-3.6-2.595-4.5-2.595h-.45c-.225 0-.45.216-.45.216l-.45.649s.45 0 .45.216zM38 25c.234.47.468.706.468.941.234.47.468.706.468 1.177l.234.235C44.32 30.176 47.362 32.059 49 33c-.702-1.647-1.872-4.235-2.574-6.353L38 25zM36.22 29l-2.22.23.666 5.07s5.55.69 5.328.69c0 .231-2.442-3.916-3.774-5.99z"/>
        <path d="M36.5 27.773h.455c.227 0 .681-.228 1.136-.682l.227-.455v-.454c-.454-.455-.682-1.137-1.363-1.818L36.045 23l4.546 1.136L44 20.273c0-.228-.455-.91-1.364-1.818v-.228c0-.227-.227-.227-.454-.454-.227-.228-.227-.455-.455-.455l-.682-.682-.681-.681c-.228-.228-.455-.455-.91-.682 0 0 0-.228-.227-.228l-.454-.454s-.228 0-.455-.227l-.227-.228s-.227-.227-.455-.227C36.5 13.227 35.818 13 35.591 13l-3.41 3.636 1.592 4.546-1.364-.91c-.682-.454-1.364-.908-2.045-.908-.228-.228-.228-.228-.455-.228l-.227.455S29 20.273 29 20.727v.455l.227 3.636.682.682h.227c.228.455.682.682.91.91.227.226.681.454.909.908l.227.227c.227.228.454.455.682.455l3.636-.227zM27.538 30.971c-2.076-1.828-3.923-2.742-4.846-2.971l-.692.686h.23c.924 0 2.77 1.143 4.616 2.743 0 .228 0 .228.23.228 1.847 1.6 3 3.2 3.232 3.886V36l.692-.686v-.228c-.23-.686-1.615-2.515-3.462-4.115z"/>
        <path d="M28.781 34.778c-.656-.89-1.531-2-2.843-3.111-1.094-1.111-2.188-1.778-3.282-2.445h.219c-.438 0-.656-.222-.875-.222.438.889 1.531 2.222 3.063 3.556C26.593 33.889 27.905 34.778 29 35c-.219 0-.219 0-.219-.222zM30.548 28.69s-.225 0-.225-.207c-.452-.207-.678-.62-1.13-1.035-.677-.414-1.128-.62-1.58-1.034-.226-.207-.452-.207-.678-.414L24 26.207c.903.414 2.484 1.241 3.839 2.483 1.58 1.241 2.71 2.482 3.161 3.31v-2.897c-.226-.206-.452-.206-.452-.413z"/>
    </g>
</svg>
