<svg xmlns="http://www.w3.org/2000/svg" width="18" height="19" viewBox="0 0 18 19">
    <path fill="#FFF" fill-rule="evenodd" d="M15.943 9.688H6.205a.556.556 0 0 1-.563-.563c0-.164.053-.299.159-.404a.547.547 0 0 1 .404-.159h9.703L13.87 6.524a.537.537 0 0 1-.158-.395c0-.158.053-.29.158-.396a.556.556 0 0 1 .404-.175c.153 0 .288.058.405.175L18 9.142l-3.322 3.41a.801.801 0 0 1-.194.115.545.545 0 0 1-.21.044.545.545 0 0 1-.211-.044.801.801 0 0 1-.194-.114.587.587 0 0 1-.158-.405c0-.152.053-.287.158-.404l2.074-2.056zM1.125.124h9.563c.316 0 .583.108.8.325.216.217.325.484.325.8v5.063h-1.126V1.936a.66.66 0 0 0-.202-.484.66.66 0 0 0-.483-.202H1.828a.631.631 0 0 0-.474.202.675.675 0 0 0-.194.484l-.017 14.378c0 .188.064.35.193.484A.631.631 0 0 0 1.81 17h8.191a.66.66 0 0 0 .483-.202.66.66 0 0 0 .203-.484V11.92h1.124V17c0 .316-.108.583-.325.8a1.087 1.087 0 0 1-.8.325H1.126c-.305 0-.568-.108-.791-.325A1.073 1.073 0 0 1 0 17V1.25C0 .934.111.667.334.45.557.233.82.125 1.125.125z"/>
</svg>
