<svg xmlns="http://www.w3.org/2000/svg" viewBox="0 0 453.54 453.55"><defs><style>.cls-1{fill:#fff;}</style></defs><title>whiteРесурс 1</title><g id="Слой_2" data-name="Слой 2"><g id="Слой_1-2" data-name="Слой 1"><g id="Слой_1-3" data-name="Слой_1"><path class="cls-1" d="M226.77,0C101.53,0,0,101.53,0,226.78S101.53,453.55,226.77,453.55,453.54,352,453.54,226.78,352,0,226.77,0ZM29.19,237.76h0c5.63,15.13,48.29,124.91,115.7,169.17A197.93,197.93,0,0,1,29.19,237.76ZM261,421.66h0C202.87,397.22,73.48,328.72,33,190.84c25,47.36,101.28,169.43,246.49,226.68Q270.42,420,261,421.66Zm78.62-32.37h0C125,332.64,52.14,185.8,40.63,159.46A198,198,0,0,1,226.77,28.88c109.3,0,197.9,88.6,197.9,197.9a197.63,197.63,0,0,1-85,162.52ZM225,144.09c2.58-.26,5.63.68,8.29,1.68a81.2,81.2,0,0,1,7.76,3.53L220.6,88.43c-15.05-4.36-36.08-10.51-49.41-14.72,9.2,11.69,26.08,33.75,51.94,67.9Zm-15.63,19.17c-16.14-7.58-50.58-23.79-50-24.41.7-.79,11.12,41.23,11.12,41.23l39.5,1Zm74-64.23h0l1.12.54c1.54.74,2.75,1.37,4,2.06l1.7,1q2.36,1.36,4.91,3c2.41,1.56,4.34,2.9,6.28,4.31l1.8,1.33q2.21,1.64,4.44,3.41l1.84,1.47c2,1.6,3.95,3.26,5.94,5s3.89,3.53,5.72,5.29l1.35,1.32c1.69,1.66,3,3,4.26,4.3l1.54,1.62c1.65,1.77,3.22,3.52,4.65,5.21,1.71,2.05,2.9,3.56,4,5l1.1,1.52c.88,1.21,1.66,2.34,2.36,3.44l.9,1.4a45.09,45.09,0,0,1,2.55,4.74l4.48-5.06a7.68,7.68,0,0,0,1.22-2.13,7.55,7.55,0,0,0,.55-2.69v-.44l-.16-1.59c-1.54-6-10.17-18.43-25.55-32.08S295.55,90.37,289.62,89.6L288,89.54a10.48,10.48,0,0,0-2.88.83,8.62,8.62,0,0,0-2.29,1.68l-4.45,5a45.77,45.77,0,0,1,5,2h0Zm13,99.14a81.09,81.09,0,0,1,4.46,7.27c1.33,2.52,2.63,5.43,2.69,8l2.7,1.56c37.07,21.48,61,35.51,73.76,43.21-5.81-12.71-14.5-32.82-20.67-47.22l-62.93-12.83Zm-10.16,33.24L268.43,233l5.87,39.07s43,5.18,42.28,6C316,278.7,295.71,246.52,286.21,231.43ZM278.39,221l3.52-.32h0l.54,0,0,0c1.28-.25,4.83-1.32,8.48-5.76l2.84-3.21c-.21-.46-.62-1.61-1.62-3.53A102.34,102.34,0,0,0,283,194.58l-7.82-10.08,36.09,7.36,25.12-28.42c-.32-2.17-2.43-7.19-9-15.44l-.78-1c-.95-1.15-1.79-2.13-2.67-3.14l-1.18-1.33c-1-1.16-2.11-2.33-3.25-3.52l-5.1-5.13q-2.7-2.6-5.63-5.21c-2-1.72-3.91-3.37-5.85-4.94-.77-.63-1.51-1.2-2.27-1.78l-3.45-2.64c-1.33-1-2.62-1.9-3.9-2.8l-1.48-1q-2-1.36-3.94-2.57l-.56-.34c-9-5.52-14.3-7-16.43-7.06L245.76,134l11.73,34.91-11-6.52a101.61,101.61,0,0,0-14.3-7.31,21.74,21.74,0,0,0-4-1.2L225.43,157s-4.8,5-4.71,9.12c0,1.93.07,3.22.09,4.08h0l1.07,28.11c1.73,1.24,3.48,2.57,5.25,3.93l2.26,1.75c2.44,1.95,4.91,4,7.39,6.17s4.8,4.4,7,6.58l1.64,1.64c1.86,1.89,3.47,3.54,4.93,5.12l28-2.39v0ZM212.85,238c-14.7-12.88-29.39-21.67-36.56-21.87h-.44l-4.57,5.21,2.1,0c6.6.1,21.15,8.87,35.37,21.33l.44.39c14,12.34,24.4,25.4,25.35,31.86l.31,2.07,4.57-5.22-.07-.43c-1.15-7.08-11.77-20.47-26.5-33.37ZM225.75,276c-4-7-12.44-16.59-22.9-25.82l-.45-.39c-8.8-7.71-17.72-14-24.81-17.7l.07.1a44.61,44.61,0,0,0-6.37-2.8c3.84,7.45,12.85,17.94,24.52,28.16s23.09,17.66,31,20.54c-.29-.61-.55-1.2-.92-1.87Zm15.47-47.89.05-.05c-.35-.36-.79-.74-1.14-1.1-3-3.14-6.25-6.31-9.85-9.5s-7.15-6-10.63-8.6c-.41-.31-.83-.7-1.23-1l0,.06c-1.41-1-2.85-2.16-4.22-3.11l-23.88,2.31.23.12c7.87,3,19.13,10.46,30.42,20.36,11.7,10.25,20.71,20.74,24.54,28.2l-.64-23.88c-1.11-1.24-2.4-2.54-3.61-3.81Z"/></g></g></g></svg>